<?xml version="1.0"?>
<svg xmlns="http://www.w3.org/2000/svg" id="Capa_1" enable-background="new 0 0 512 512" height="512px" viewBox="0 0 512 512" width="512px" class=""><g><g><path d="m479.261 338.324-43.989-16.494c-49.307-18.501-93.856-49.995-134.228-80.684-8.921-6.782-19.279-11.063-30.044-13.2v-13.987c0-10.679 5.757-20.64 15.015-26.001 18.501-10.693 29.985-30.601 29.985-51.958 0-33.091-26.909-60-60-60s-60 26.909-60 60h30c0-16.538 13.462-30 30-30s30 13.462 30 30c0 10.679-5.757 20.64-15.015 26.001-18.501 10.708-29.985 30.615-29.985 51.958v13.987c-10.763 2.137-21.125 6.418-30.044 13.2-40.371 30.688-83.921 62.183-133.213 80.684l-45.019 16.494c-19.57 7.339-32.724 26.323-32.724 47.241 0 27.803 22.632 50.435 50.435 50.435h411.131c27.802 0 50.434-22.632 50.434-50.435 0-20.918-13.154-39.902-32.739-47.241zm-17.696 67.676h-411.13c-11.265 0-20.435-9.17-20.435-20.435 0-8.481 5.332-16.172 13.257-19.146l45.019-16.494c53.101-19.922 98.687-52.866 140.845-84.902 7.763-5.903 17.05-9.023 26.879-9.023s19.116 3.12 26.88 9.023c42.158 32.036 87.744 64.98 140.845 84.902l45.004 16.494c7.939 2.974 13.271 10.664 13.271 19.146 0 11.265-9.17 20.435-20.435 20.435z" data-original="#000000" class="active-path" data-old_color="#000000"/></g></g> </svg>
