<?xml version="1.0"?>
<svg xmlns="http://www.w3.org/2000/svg" id="Capa_1" enable-background="new 0 0 512 512" height="512px" viewBox="0 0 512 512" width="512px" class=""><g><g><g><g><path d="m236.848 206.504v-15.369c0-25.77 12.314-49.652 32.939-63.884 6.91-4.767 10.844-12.625 10.526-21.019-.479-12.613-10.734-22.868-23.346-23.347-6.702-.267-13.033 2.154-17.84 6.781-4.811 4.631-7.46 10.857-7.46 17.532 0 10.577-8.574 19.151-19.151 19.151s-19.151-8.574-19.151-19.151c0-17.181 6.818-33.206 19.197-45.124 12.375-11.914 28.664-18.107 45.857-17.464 32.504 1.235 58.933 27.664 60.166 60.167.82 21.561-9.291 41.748-27.046 53.999-10.263 7.082-16.391 19.179-16.391 32.359v15.369z" fill="#c7c5cb" data-original="#C7C5CB"/></g><g><path d="m46.55 385.912h418.897v43.09h-418.897z" fill="#c7c5cb" data-original="#C7C5CB"/></g><g fill="#b2b0bc"><path d="m409.33 413.39c1.301 5.357 2.162 10.58 2.596 15.612h53.521v-43.089h-66.654c4.648 8.66 8.21 17.893 10.537 27.477z" data-original="#B2B0BC"/><path d="m102.666 413.394c2.328-9.586 5.891-18.82 10.539-27.482h-66.655v43.089h53.52c.435-5.031 1.296-10.252 2.596-15.607z" data-original="#B2B0BC"/></g><path d="m277.647 157.35h-33.283c-4.875 10.346-7.516 21.862-7.516 33.785v15.369h38.302v-15.369c0-13.18 6.128-25.277 16.391-32.359.08-.055.158-.114.237-.169-4.609-.826-9.332-1.257-14.131-1.257z" fill="#b2b0bc" data-original="#B2B0BC"/><path d="m498.966 391.624c-11.141-45.866-37.953-87.163-75.499-116.282-21.384-16.585-45.821-28.897-71.693-36.382-13.082-3.785-24.053-12.738-30.279-24.849-8.447-16.431-25.372-26.76-43.847-26.76h-43.298c-18.475 0-35.399 10.329-43.847 26.76-6.227 12.111-17.198 21.064-30.279 24.849-25.872 7.486-50.309 19.797-71.692 36.382-37.546 29.119-64.359 70.416-75.5 116.283-3.583 14.752-5.443 29.425-5.531 43.628-.107 17.129 13.605 31.974 30.733 32.181 17.363.209 31.504-13.803 31.504-31.118 0-9.59 1.271-19.684 3.776-30.001 7.827-32.227 26.708-61.274 53.162-81.791 26.432-20.499 59.458-31.79 92.994-31.79h72.658c33.537 0 66.563 11.29 92.994 31.79 26.455 20.517 45.335 49.564 53.162 81.789 2.465 10.155 3.735 20.092 3.775 29.545.073 17.238 13.899 31.587 31.138 31.578 17.18-.009 31.104-13.939 31.104-31.12-.001-14.533-1.863-29.569-5.535-44.692z" fill="#b0ebce" data-original="#B0EBCE" class="active-path" style="fill:#F469A9" data-old_color="#b0ebce"/></g><g><path d="m208.026 259.144v-10.66c0-4.142-3.358-7.5-7.5-7.5s-7.5 3.358-7.5 7.5v10.66c0 4.142 3.358 7.5 7.5 7.5s7.5-3.358 7.5-7.5z" data-original="#000000" class="" style="fill:#000000"/><path d="m318.971 259.144v-10.66c0-4.142-3.358-7.5-7.5-7.5s-7.5 3.358-7.5 7.5v10.66c0 4.142 3.358 7.5 7.5 7.5s7.5-3.358 7.5-7.5z" data-original="#000000" class="" style="fill:#000000"/><path d="m255.999 272.989c7.773 0 15.165-3.366 20.279-9.235 2.721-3.123 2.396-7.86-.727-10.582-3.123-2.72-7.86-2.396-10.582.727-2.265 2.6-5.535 4.09-8.971 4.09s-6.706-1.491-8.971-4.09c-2.721-3.123-7.459-3.448-10.582-.727s-3.448 7.459-.727 10.582c5.116 5.869 12.507 9.235 20.281 9.235z" data-original="#000000" class="" style="fill:#000000"/><path d="m428.063 269.415c-22.094-17.136-47.06-29.807-74.205-37.66-11.094-3.21-20.458-10.891-25.694-21.074-8.729-16.978-25.095-28.207-43.72-30.421 2.118-6.275 6.046-11.648 11.355-15.311 19.88-13.717 31.2-36.317 30.281-60.456-1.38-36.399-30.976-65.995-67.38-67.377-19.262-.721-37.492 6.224-51.34 19.555-13.862 13.345-21.496 31.29-21.496 50.527 0 14.695 11.956 26.651 26.651 26.651s26.651-11.956 26.651-26.651c0-4.617 1.833-8.924 5.162-12.129 3.333-3.209 7.718-4.878 12.354-4.689 8.717.331 15.805 7.418 16.135 16.137.221 5.816-2.504 11.259-7.29 14.561-19.455 13.425-32.377 35.093-35.455 58.935-19.661 1.461-37.119 12.928-46.24 30.668-5.235 10.183-14.6 17.864-25.694 21.074-22.782 6.592-44.21 16.69-63.689 30.015-3.418 2.339-4.294 7.006-1.956 10.425s7.006 4.295 10.425 1.956c18.16-12.423 38.141-21.839 59.389-27.986 15.042-4.353 27.75-14.786 34.865-28.625 7.195-13.995 21.44-22.689 37.177-22.689h43.298c15.736 0 29.981 8.694 37.177 22.689 7.115 13.839 19.823 24.272 34.865 28.625 25.316 7.324 48.592 19.135 69.181 35.104 36.208 28.081 62.066 67.902 72.808 112.125 3.531 14.545 5.322 28.986 5.322 42.922 0 13.018-10.59 23.613-23.607 23.62-.005 0-.008 0-.013 0-12.97 0-23.566-10.813-23.621-24.11-.04-9.409-1.299-20.212-3.987-31.283-7.141-29.402-22.756-55.972-45.157-76.838-3.032-2.824-7.777-2.655-10.6.376s-2.655 7.776.376 10.6c12.369 11.521 22.433 24.968 29.874 39.733h-328.511c9.367-18.558 22.857-35.041 39.518-47.962 25.124-19.485 56.518-30.216 88.398-30.216h72.658c26.58 0 52.665 7.358 75.435 21.278 3.535 2.161 8.151 1.047 10.311-2.487 2.161-3.534 1.047-8.15-2.487-10.311-25.126-15.361-53.917-23.48-83.259-23.48h-72.658c-35.192 0-69.85 11.849-97.591 33.363-21.776 16.888-38.665 39.285-48.915 64.482-.001.003-.003.005-.004.008-.01.024-.018.048-.028.072-6.686 16.467-10.895 35.228-10.895 53.156 0 13.451-11.101 23.846-23.914 23.619-12.724-.156-23.405-11.437-23.323-24.637.085-13.621 1.875-27.72 5.319-41.905 9.433-38.837 30.112-73.807 59.803-101.13 3.048-2.805 3.245-7.549.44-10.597s-7.549-3.245-10.597-.44c-31.879 29.337-54.087 66.9-64.222 108.627-3.719 15.312-5.651 30.571-5.743 45.351-.135 21.65 16.975 39.472 38.142 39.727 21.351.26 38.988-16.863 39.09-38.431h357.543c.414 21.253 17.598 38.434 38.603 38.434h.021c21.284-.011 38.6-17.336 38.6-38.62 0-15.127-1.933-30.759-5.746-46.462-11.54-47.511-39.309-90.284-78.19-120.438zm-182.82-89.565c2.99-18.833 13.406-35.802 28.803-46.426 9.034-6.232 14.178-16.503 13.761-27.476-.626-16.509-14.048-29.931-30.541-30.557-8.744-.349-17.036 2.802-23.34 8.872-6.293 6.058-9.759 14.203-9.759 22.935 0 6.424-5.227 11.651-11.651 11.651s-11.651-5.227-11.651-11.651c0-15.123 6.001-29.23 16.899-39.722 10.885-10.479 25.223-15.943 40.371-15.372 28.61 1.087 51.871 24.349 52.957 52.958.722 18.982-8.179 36.754-23.811 47.54-9.237 6.374-15.693 16.073-18.313 27.247h-23.725zm181.502 213.562c3.434 9.404 5.795 19.236 6.982 28.089h-355.456c1.204-8.944 3.503-18.541 6.951-28.003.01-.029.021-.058.032-.086z" data-original="#000000" class="" style="fill:#000000"/></g></g></g> </svg>
