<?xml version="1.0"?>
<svg xmlns="http://www.w3.org/2000/svg" id="Capa_1" enable-background="new 0 0 497 497" height="512px" viewBox="0 0 497 497" width="512px" class=""><g><g><g><path d="m229.348 199.004v-15.369c0-25.77 12.314-49.652 32.939-63.884 6.91-4.767 10.844-12.625 10.526-21.019-.479-12.613-10.734-22.868-23.346-23.347-6.702-.267-13.033 2.154-17.84 6.781-4.811 4.631-7.46 10.857-7.46 17.532 0 10.577-8.574 19.151-19.151 19.151s-19.151-8.574-19.151-19.151c0-17.181 6.818-33.206 19.197-45.124 12.375-11.914 28.664-18.107 45.858-17.464 32.504 1.235 58.933 27.664 60.166 60.167.82 21.561-9.291 41.748-27.046 53.999-10.263 7.082-16.391 19.179-16.391 32.359v15.369z" fill="#c7c5cb" data-original="#C7C5CB" class="" style="fill:#C7C5CB"/></g><g><path d="m39.051 378.412h418.897v43.09h-418.897z" fill="#c7c5cb" data-original="#C7C5CB" class="" style="fill:#C7C5CB"/></g><g fill="#b2b0bc"><path d="m401.83 405.89c1.301 5.357 2.162 10.58 2.596 15.612h53.521v-43.089h-66.654c4.648 8.66 8.21 17.893 10.537 27.477z" data-original="#B2B0BC" class=""/><path d="m95.166 405.895c2.328-9.586 5.891-18.82 10.539-27.482h-66.654v43.089h53.52c.434-5.032 1.295-10.252 2.595-15.607z" data-original="#B2B0BC" class=""/></g><path d="m270.148 149.85h-33.283c-4.875 10.346-7.516 21.862-7.516 33.785v15.369h38.302v-15.369c0-13.18 6.128-25.277 16.391-32.359.08-.055.158-.114.237-.169-4.61-.826-9.333-1.257-14.131-1.257z" fill="#b2b0bc" data-original="#B2B0BC" class=""/><path d="m491.466 384.124c-11.141-45.866-37.953-87.163-75.499-116.282-21.384-16.585-45.821-28.897-71.693-36.382-13.082-3.785-24.053-12.738-30.279-24.849-8.447-16.431-25.372-26.76-43.847-26.76h-43.298c-18.475 0-35.399 10.329-43.847 26.76-6.227 12.111-17.198 21.064-30.279 24.849-25.872 7.486-50.309 19.797-71.692 36.382-37.546 29.119-64.359 70.416-75.5 116.283-3.583 14.752-5.443 29.425-5.531 43.628-.107 17.129 13.605 31.974 30.733 32.181 17.363.209 31.504-13.803 31.504-31.118 0-9.59 1.271-19.684 3.776-30.001 7.827-32.227 26.708-61.274 53.162-81.791 26.432-20.499 59.458-31.79 92.994-31.79h72.658c33.537 0 66.563 11.29 92.994 31.79 26.455 20.517 45.335 49.564 53.162 81.789 2.465 10.155 3.735 20.092 3.775 29.545.073 17.238 13.899 31.587 31.138 31.578 17.18-.009 31.104-13.939 31.104-31.12-.001-14.533-1.863-29.569-5.535-44.692z" fill="#b0ebce" data-original="#B0EBCE" class="active-path" style="fill:#FFB6C1" data-old_color="#b0ebce"/><g><g><path d="m193.026 259.144c-4.142 0-7.5-3.358-7.5-7.5v-10.66c0-4.142 3.358-7.5 7.5-7.5s7.5 3.358 7.5 7.5v10.66c0 4.142-3.358 7.5-7.5 7.5z" fill="#423e4f" data-original="#423E4F" class="" style="fill:#423E4F" data-old_color="#423e4f"/></g><g><path d="m303.972 259.144c-4.142 0-7.5-3.358-7.5-7.5v-10.66c0-4.142 3.358-7.5 7.5-7.5s7.5 3.358 7.5 7.5v10.66c0 4.142-3.358 7.5-7.5 7.5z" fill="#423e4f" data-original="#423E4F" class="" style="fill:#423E4F" data-old_color="#423e4f"/></g><g><path d="m248.499 265.489c-7.773 0-15.165-3.366-20.279-9.235-2.721-3.123-2.396-7.86.727-10.582 3.123-2.721 7.86-2.396 10.582.727 2.265 2.6 5.535 4.09 8.971 4.09s6.706-1.491 8.971-4.09c2.721-3.123 7.458-3.447 10.582-.727 3.123 2.722 3.448 7.459.727 10.582-5.116 5.869-12.508 9.235-20.281 9.235z" fill="#423e4f" data-original="#423E4F" class="" style="fill:#423E4F" data-old_color="#423e4f"/></g></g></g></g> </svg>
